<svg xmlns="http://www.w3.org/2000/svg" xmlns:xlink="http://www.w3.org/1999/xlink" width="225" height="30" viewBox="0 0 225 30">
	<defs>
		<clipPath id="a">
			<rect width="225" height="30" fill="#fff"/>
		</clipPath>
	</defs>
	<g transform="translate(0 0)" fill="#F51451">
		<path d="M23.128,0l-6.2,22.772L10.729,0H0V29.714H6.2l0-22.867,6.533,22.867H20.84L27.372,6.8l-.009,22.915h6.355L33.714,0Z" transform="translate(0 0)"/>
		<path d="M48.738,0V29.714H70.532V23.628H56.178v-5.8H67.719V11.79H56.178v-5.7H70.532V0Z" transform="translate(-8.326 0)"/>
		<path d="M103.7,0V19.3L91.3,0H83.1V29.709h7.1V10.457l12.359,19.257H110.8V0Z" transform="translate(-14.197 0)"/>
		<path d="M165.355,0V29.714h20.077V23.391H172.937V0Z" transform="translate(-28.249 0)"/>
		<path d="M256.509,0l-6.152,9.652L244.349,0h-8.537l9.967,14.833L235.526,29.714h8.3l6.438-10.126L256.6,29.714h8.632l-10.35-15.165L264.949,0Z" transform="translate(-40.237 0)"/>
		<g transform="translate(0 0)">
			<g clip-path="url(#a)">
				<path d="M145.185,0h-1.429V16.83c0,4.611-1.861,6.513-5.437,6.513-3.958,0-5.77-2.329-5.77-6.8V0h-7.535V17.544c0,8.366,5.341,12.171,13.114,12.171,8.011,0,13.161-4.232,13.161-12.837V0Z" transform="translate(-21.357 0)"/>
				<path d="M216.873,0h-1.429V16.83c0,4.611-1.861,6.513-5.437,6.513-3.958,0-5.77-2.329-5.77-6.8V0H196.7V17.544c0,8.366,5.341,12.171,13.114,12.171,8.01,0,13.161-4.232,13.161-12.837V0Z" transform="translate(-33.604 0)"/>
			</g>
		</g>
	</g>
</svg>