<svg width="4149" height="842" viewBox="0 0 4149 842" fill="none" xmlns="http://www.w3.org/2000/svg">
<path d="M1279.05 191.204C1351.11 191.204 1391.23 232.381 1391.23 315.869C1391.23 399.009 1351.55 439.481 1279.05 439.481H1245.18C1172.68 439.481 1133 399.009 1133 315.869C1133 232.373 1173.12 191.204 1245.18 191.204H1279.05ZM1245.27 234.577C1197.49 234.577 1176.46 258.857 1176.46 315.869C1176.46 372.525 1197.05 396.019 1245.27 396.019H1279.14C1326.91 396.019 1347.59 372.444 1347.59 315.521C1347.59 258.865 1327 234.577 1279.14 234.577H1245.27ZM1237.52 118V163.221H1198.2V118H1237.52ZM1325.76 118V163.221H1286.43V118H1325.76Z" fill="#EAB320" stroke="#EAB320" stroke-width="2" stroke-miterlimit="10"/>
<path d="M1643.2 245.218L1526.28 517.345H1484.31L1520.74 432.358C1498.66 432.358 1490.92 425.404 1484.31 408.426L1419.2 245.129H1460.38L1518.88 389.682C1521.44 396.635 1523.28 397.778 1530.68 397.778H1535.87L1601.68 245.129H1643.2V245.218Z" fill="#EAB320" stroke="#EAB320" stroke-width="2" stroke-miterlimit="10"/>
<path d="M1717.1 161.025V325.813H1735.14C1766.03 325.813 1772.27 324.314 1783.71 303.73L1816.09 245.226H1858.41L1824.53 306.282C1814.94 323.528 1805.79 334.258 1789.95 340.862C1808.34 346.057 1817.93 358.108 1829.63 378.344L1864.56 439.4H1820.83L1788.45 382.039C1777.02 361.803 1769.36 358.465 1735.13 358.465H1717.09V439.408H1678.13V160.952L1717.1 161.025Z" fill="#EAB320" stroke="#EAB320" stroke-width="2" stroke-miterlimit="10"/>
<path d="M1930.01 245.218V361.439C1930.01 384.228 1946.9 401.554 1977.79 401.554H2009.46C2040.34 401.554 2056.88 384.309 2056.88 361.439V245.218H2095.15V362.938C2095.15 407.81 2066.47 439.392 2010.96 439.392H1974.89C1919.37 439.392 1890.69 407.721 1890.69 362.938V245.218H1930.01ZM1968.29 172.022V217.243H1928.96V172.022H1968.29ZM2056.53 172.022V217.243H2017.2V172.022H2056.53Z" fill="#EAB320" stroke="#EAB320" stroke-width="2" stroke-miterlimit="10"/>
<path d="M2376.86 245.218C2442.67 245.218 2475.05 276.451 2475.05 330.206V439.481H2435.72V330.206C2435.72 299.678 2418.04 282.781 2377.22 282.781H2331.64V439.473H2292.31V282.7H2193.78C2190.43 282.7 2189.03 284.547 2189.03 288.243V439.392H2150.06V275.398C2150.06 252.609 2157.79 245.218 2177.24 245.218H2376.86Z" fill="#EAB320" stroke="#EAB320" stroke-width="2" stroke-miterlimit="10"/>
<path d="M2673.27 191.204V292.384H2800.14V191.204H2843.95V439.481H2800.14V335.749H2673.27V439.481H2629.9V191.204H2673.27Z" fill="#595A5C"/>
<path d="M3025.99 245.218C3074.55 245.218 3093.64 272.407 3093.64 309.184V400.42C3093.64 428.395 3086.25 439.392 3053.52 439.392H2962.73C2916.71 439.392 2897.62 416.96 2897.62 380.184C2897.62 344.907 2915.3 324.314 2963.07 324.314H3055.36V309.621C3055.36 294.58 3046.92 282.789 3025.54 282.789H2909.32V245.307L3025.99 245.218ZM3055.37 391.619V355.191H2963.79C2943.2 355.191 2935.81 363.635 2935.81 377.979C2935.81 392.324 2943.55 401.554 2963 401.554H3044.65C3052.47 401.562 3055.37 398.572 3055.37 391.619Z" fill="#595A5C"/>
<path d="M3155.85 245.218V227.883C3155.85 177.119 3173.09 160.927 3213.21 160.927H3248.14V196.65H3221.3C3202.91 196.65 3195.18 204.041 3195.18 225.687V245.218H3248.84V282.7H3195.18V439.392H3155.85V282.7H3129.36V245.218H3155.85Z" fill="#595A5C"/>
<path d="M3418.73 245.218V282.7H3350.29C3333.04 282.7 3325.3 290.796 3325.3 307.684V439.392H3286.33V301.882C3286.33 262.909 3300.67 245.226 3338.94 245.226L3418.73 245.218Z" fill="#595A5C"/>
<path d="M3496.33 172.022V217.243H3457V172.022H3496.33ZM3495.97 245.218V439.392H3457V245.218H3495.97Z" fill="#595A5C"/>
<path d="M3754.9 245.218L3637.97 517.345H3596.01L3632.44 432.358C3610.36 432.358 3602.62 425.404 3596.01 408.426L3530.9 245.137H3572.08L3630.58 389.69C3633.14 396.643 3634.98 397.786 3642.37 397.786H3647.57L3713.38 245.137H3754.91V245.218H3754.9Z" fill="#595A5C"/>
<path d="M3914.15 245.218C3962.71 245.218 3981.8 272.407 3981.8 309.184V400.42C3981.8 428.395 3974.41 439.392 3941.68 439.392H3850.8C3804.87 439.392 3785.69 416.96 3785.69 380.184C3785.69 344.907 3803.37 324.314 3851.14 324.314H3943.43V309.621C3943.43 294.58 3934.99 282.789 3913.61 282.789H3797.39V245.307L3914.15 245.218ZM3943.62 391.619V355.191H3852.04C3831.45 355.191 3824.06 363.635 3824.06 377.979C3824.06 392.324 3831.8 401.554 3851.25 401.554H3932.9C3940.63 401.562 3943.62 398.572 3943.62 391.619Z" fill="#595A5C"/>
<path d="M4044.01 245.218V199.203H4083.33V245.218H4137V282.699H4083.33V374.64C4083.33 396.376 4091.07 403.677 4109.46 403.677H4136.3V439.311H4101.37C4061.25 439.311 4044.01 423.119 4044.01 372.355V282.61H4017.52V245.129L4044.01 245.218Z" fill="#595A5C"/>
<path d="M1156.72 537.298V560.435H1136.66V537.298H1156.72ZM1156.45 574.69V673.933H1136.57V574.69H1156.45Z" fill="#808386"/>
<path d="M1239.95 574.69C1273.56 574.69 1289.92 590.614 1289.92 618.063V673.843H1269.86V618.063C1269.86 602.487 1260.8 593.783 1239.95 593.783H1207.48C1205.82 593.783 1205.02 594.748 1205.02 596.595V673.843H1185.13V590.088C1185.13 578.475 1189.1 574.69 1199.03 574.69H1239.95Z" fill="#808386"/>
<path d="M1400.6 574.69V593.872H1345.7C1336.46 593.872 1332.77 597.657 1332.77 605.137C1332.77 612.09 1335.76 615.867 1346.84 615.867H1370.16C1397.61 615.867 1404.56 628.444 1404.56 643.842C1404.56 661.525 1395.32 673.933 1372.1 673.933H1314.38V654.58H1372.1C1381.33 654.58 1385.03 651.411 1385.03 643.672C1385.03 635.754 1380.9 632.586 1370.95 632.586H1347.46C1320.01 632.586 1313.24 618.857 1313.24 603.638C1313.24 585.776 1322.47 574.69 1345.52 574.69H1400.6ZM1368.84 678.422V698.569C1368.84 715.288 1361.54 723.554 1345.88 723.554H1339.72V708.513H1342C1346.93 708.513 1348.96 706.049 1348.96 700.595V678.422H1368.84Z" fill="#808386"/>
<path d="M1491.57 574.69C1516.38 574.69 1526.15 588.588 1526.15 607.422V654.053C1526.15 668.308 1522.37 673.941 1505.65 673.941H1459.2C1435.7 673.941 1425.94 662.506 1425.94 643.672C1425.94 625.632 1434.91 615.081 1459.37 615.081H1506.53V607.601C1506.53 599.861 1502.21 593.872 1491.31 593.872H1431.92V574.69H1491.57ZM1506.53 649.474V630.908H1459.72C1449.16 630.908 1445.47 635.219 1445.47 642.521C1445.47 649.823 1449.43 654.572 1459.37 654.572H1501.07C1505.03 654.491 1506.53 652.992 1506.53 649.474Z" fill="#808386"/>
<path d="M1617.83 574.69C1642.63 574.69 1652.41 588.588 1652.41 607.422V654.053C1652.41 668.308 1648.62 673.941 1631.9 673.941H1585.45C1561.96 673.941 1552.19 662.506 1552.19 643.672C1552.19 625.632 1561.25 615.081 1585.62 615.081H1632.78V607.601C1632.78 599.861 1628.47 593.872 1617.56 593.872H1558.17V574.69H1617.83ZM1632.87 649.474V630.908H1586.06C1575.5 630.908 1571.8 635.219 1571.8 642.521C1571.8 649.823 1575.77 654.572 1585.7 654.572H1627.41C1631.37 654.491 1632.87 652.992 1632.87 649.474Z" fill="#808386"/>
<path d="M1684.16 574.69V551.204H1704.22V574.698H1731.67V593.88H1704.22V640.86C1704.22 651.946 1708.18 655.731 1717.59 655.731H1731.32V673.941H1713.46C1692.95 673.941 1684.16 665.674 1684.16 639.717V593.88H1670.61V574.698H1684.16V574.69Z" fill="#808386"/>
<path d="M1835.67 583.839C1848.24 583.839 1856.34 591.757 1856.34 608.476C1856.34 625.195 1848.24 633.112 1835.67 633.112H1819.47C1806.9 633.112 1798.97 625.195 1798.97 608.476C1798.97 591.757 1806.89 583.839 1819.47 583.839H1835.67Z" fill="#EAB320"/>
<path d="M1997.02 574.69C2021.82 574.69 2031.6 588.588 2031.6 607.422V654.053C2031.6 668.308 2027.81 673.941 2011.09 673.941H1964.64C1941.15 673.941 1931.38 662.506 1931.38 643.672C1931.38 625.632 1940.44 615.081 1964.81 615.081H2011.97V607.601C2011.97 599.861 2007.66 593.872 1996.75 593.872H1937.36V574.69H1997.02ZM2012.07 649.474V630.908H1965.26C1954.7 630.908 1951 635.219 1951 642.521C1951 649.823 1954.97 654.572 1964.9 654.572H2006.6C2010.57 654.491 2012.07 652.992 2012.07 649.474Z" fill="#808386"/>
<path d="M2079.72 531.673V673.941H2059.83V531.673H2079.72Z" fill="#808386"/>
<path d="M2111.84 574.69V551.204H2131.89V574.698H2159.34V593.88H2131.89V640.86C2131.89 651.946 2135.86 655.731 2145.27 655.731H2158.99V673.941H2141.13C2120.63 673.941 2111.84 665.674 2111.84 639.717V593.88H2098.29V574.698H2111.84V574.69Z" fill="#808386"/>
<path d="M2332.66 574.69L2272.93 713.699H2251.55L2270.12 670.326C2258.85 670.326 2254.9 666.72 2251.55 658.097L2218.29 574.69H2239.32L2269.23 648.502C2270.55 652.108 2271.52 652.635 2275.21 652.635H2277.86L2311.46 574.682L2332.66 574.69Z" fill="#808386"/>
<path d="M2414.05 574.69C2438.85 574.69 2448.63 588.588 2448.63 607.422V654.053C2448.63 668.308 2444.84 673.941 2428.12 673.941H2381.76C2358.27 673.941 2348.5 662.506 2348.5 643.672C2348.5 625.632 2357.56 615.081 2381.93 615.081H2429.09V607.601C2429.09 599.861 2424.78 593.872 2413.87 593.872H2354.48V574.69H2414.05ZM2429.09 649.474V630.908H2382.28C2371.72 630.908 2368.02 635.219 2368.02 642.521C2368.02 649.823 2371.99 654.572 2381.92 654.572H2423.63C2427.6 654.491 2429.09 652.992 2429.09 649.474Z" fill="#808386"/>
<path d="M2540.3 574.69C2566.61 574.69 2583.15 590.882 2583.15 624.311C2583.15 657.741 2566.61 673.933 2540.3 673.933H2496.31V713.789H2476.42V617.188C2476.42 588.597 2489 574.69 2512.84 574.69H2540.3ZM2496.31 654.491H2538.19C2555.44 654.491 2563 645.69 2563 624.222C2563 602.844 2555.52 593.783 2538.19 593.783H2518.66C2502.47 593.783 2496.32 600.907 2496.32 618.063V654.491H2496.31Z" fill="#808386"/>
<path d="M2626.96 574.69V673.933H2607.07V574.69H2626.96Z" fill="#808386"/>
<path d="M2740.1 583.839C2752.68 583.839 2760.77 591.757 2760.77 608.476C2760.77 625.195 2752.68 633.112 2740.1 633.112H2723.91C2711.33 633.112 2703.4 625.195 2703.4 608.476C2703.4 591.757 2711.32 583.839 2723.91 583.839H2740.1Z" fill="#EAB320"/>
<path d="M2857.91 531.673V574.698H2892.84C2926.26 574.698 2942.81 590.89 2942.81 618.071V673.852H2922.66V618.071C2922.66 602.852 2913.42 593.791 2892.75 593.791H2857.82V673.852H2838.02V531.584L2857.91 531.673Z" fill="#808386"/>
<path d="M3034.31 574.69C3059.12 574.69 3068.89 588.588 3068.89 607.422V654.053C3068.89 668.308 3065.1 673.941 3048.39 673.941H3002.03C2978.54 673.941 2968.77 662.506 2968.77 643.672C2968.77 625.632 2977.83 615.081 3002.2 615.081H3049.36V607.601C3049.36 599.861 3045.05 593.872 3034.14 593.872H2974.75V574.69H3034.31ZM3049.35 649.474V630.908H3002.54C2991.98 630.908 2988.29 635.219 2988.29 642.521C2988.29 649.823 2992.25 654.572 3002.18 654.572H3043.89C3047.86 654.491 3049.35 652.992 3049.35 649.474Z" fill="#808386"/>
<path d="M3100.73 574.69V565.889C3100.73 539.931 3109.53 531.665 3130.03 531.665H3147.89V549.875H3134.16C3124.74 549.875 3120.79 553.66 3120.79 564.746V574.69H3148.24V593.872H3120.79V673.933H3100.73V593.872H3087.18V574.69H3100.73Z" fill="#808386"/>
<path d="M3235.08 574.69V593.872H3200.15C3191.35 593.872 3187.4 598.005 3187.4 606.628V673.933H3167.51V603.638C3167.51 583.75 3174.81 574.69 3194.34 574.69H3235.08Z" fill="#808386"/>
<path d="M3274.67 537.298V560.435H3254.52V537.298H3274.67ZM3274.49 574.69V673.933H3254.6V574.69H3274.49Z" fill="#808386"/>
<path d="M3406.81 574.69L3347.08 713.699H3325.7L3344.27 670.326C3333 670.326 3329.05 666.72 3325.7 658.097L3292.44 574.69H3313.47L3343.38 648.502C3344.7 652.108 3345.67 652.635 3349.36 652.635H3352.01L3385.61 574.682L3406.81 574.69Z" fill="#808386"/>
<path d="M3488.19 574.69C3513 574.69 3522.77 588.588 3522.77 607.422V654.053C3522.77 668.308 3518.99 673.941 3502.28 673.941H3455.83C3432.33 673.941 3422.57 662.506 3422.57 643.672C3422.57 625.632 3431.54 615.081 3456 615.081H3503.15V607.601C3503.15 599.861 3498.84 593.872 3487.94 593.872H3428.55V574.69H3488.19ZM3503.15 649.474V630.908H3456.35C3445.79 630.908 3442.09 635.219 3442.09 642.521C3442.09 649.823 3446.05 654.572 3455.99 654.572H3497.69C3501.66 654.491 3503.15 652.992 3503.15 649.474Z" fill="#808386"/>
<path d="M3554.53 574.69V551.204H3574.59V574.698H3602.04V593.88H3574.59V640.86C3574.59 651.946 3578.55 655.731 3587.96 655.731H3601.69V673.941H3583.83C3563.33 673.941 3554.53 665.674 3554.53 639.717V593.88H3540.98V574.698H3554.53V574.69Z" fill="#808386"/>
<path d="M107.295 604.45C107.295 604.45 195.505 801.01 416.335 826.85C416.335 826.85 123.765 928.25 107.295 604.45Z" fill="#EAB320"/>
<path d="M292.655 50.1C295.205 48.68 -58.3246 416.62 120.355 792.36C120.355 792.36 -214.305 339.41 292.655 50.1Z" fill="#EAB320"/>
<path d="M212.255 690.81H589.206C589.276 690.81 447.205 904.9 212.255 690.81Z" fill="#EAB320"/>
<path d="M522.715 0C497.235 0 472.336 2.34 448.206 6.81V86.43C472.196 80.89 497.095 77.99 522.715 77.99C705.935 77.99 855.025 227.08 855.025 410.23C855.025 526.04 795.415 628.23 705.295 687.76V151.36H619.576V351.4V432.79V728.06V808.81C799.176 765.17 932.945 603.02 932.945 410.15C932.945 184 748.865 0 522.715 0Z" fill="#595A5C"/>
<path d="M309.755 665.34H395.835V432.87H567.206V351.48H395.835V277.32V92.18V11.49C365.675 18.8 336.865 29.44 309.755 43V132.7V665.34Z" fill="#EAB320"/>
</svg>
